<svg id="svg" version="1.1" xmlns="http://www.w3.org/2000/svg" xmlns:xlink="http://www.w3.org/1999/xlink" width="400" height="87.86127167630059" viewBox="0, 0, 400,87.86127167630059"><g id="svgg"><path id="path0" d="M25.390 10.983 C 24.845 15.317,25.636 43.022,26.410 46.705 C 27.698 52.832,28.282 72.315,27.165 71.887 C 26.370 71.582,23.584 72.840,23.584 73.504 C 23.584 74.012,26.227 75.376,27.211 75.376 C 27.800 75.376,27.783 75.478,27.113 75.967 C 26.346 76.528,26.354 76.676,27.256 78.781 C 28.497 81.675,29.324 81.387,29.503 77.998 C 29.629 75.614,29.738 75.376,30.701 75.376 C 31.283 75.376,33.387 74.960,35.376 74.451 C 37.794 73.832,40.506 73.526,43.561 73.526 C 47.179 73.526,48.497 73.338,49.898 72.623 C 50.871 72.127,52.684 71.472,53.926 71.167 C 55.169 70.862,57.382 70.017,58.844 69.288 L 61.503 67.964 61.503 69.791 C 61.503 71.514,61.418 71.626,60.000 71.763 C 57.391 72.014,58.068 73.295,60.809 73.295 L 63.121 73.295 63.234 71.214 C 63.296 70.069,63.466 68.049,63.612 66.725 L 63.877 64.317 65.521 67.419 C 66.426 69.124,67.646 71.091,68.233 71.789 C 68.820 72.487,69.436 73.488,69.603 74.012 C 70.561 77.029,77.832 76.222,81.721 72.667 L 83.658 70.896 85.106 72.390 C 85.903 73.212,87.421 74.240,88.480 74.674 C 89.538 75.109,91.295 75.860,92.382 76.345 C 95.789 77.862,97.654 77.201,95.734 75.157 C 95.050 74.429,94.236 74.096,93.209 74.125 C 91.020 74.187,86.452 71.762,85.202 69.874 C 83.262 66.944,83.914 59.836,85.954 61.682 C 87.026 62.652,88.021 62.273,87.631 61.044 C 87.396 60.303,96.156 60.096,97.022 60.822 C 97.403 61.141,98.017 67.256,98.025 70.810 C 98.035 74.732,98.799 76.755,99.822 75.564 C 100.264 75.049,99.660 63.389,99.053 60.731 C 98.602 58.757,99.516 55.597,100.761 54.827 C 101.392 54.438,101.431 50.884,100.822 49.282 C 100.523 48.496,99.593 47.760,98.048 47.085 C 96.484 46.402,95.723 45.795,95.723 45.231 C 95.723 44.164,100.005 44.045,102.400 45.045 C 103.259 45.404,105.281 45.837,106.894 46.008 L 109.827 46.318 111.610 43.968 C 112.643 42.609,113.282 41.327,113.128 40.925 C 112.697 39.802,112.110 40.106,110.459 42.306 C 108.731 44.608,107.278 44.775,102.880 43.175 C 101.694 42.744,99.768 42.549,97.563 42.637 L 94.104 42.775 93.960 44.262 C 93.833 45.576,93.619 45.784,92.111 46.048 C 89.804 46.453,84.624 51.418,84.624 53.225 C 84.624 54.811,83.353 57.848,82.397 58.547 C 81.832 58.960,81.778 59.241,82.174 59.719 C 83.268 61.039,82.133 69.712,80.665 71.244 C 77.754 74.282,71.989 74.847,70.679 72.222 C 70.257 71.378,69.610 70.338,69.240 69.910 C 66.291 66.500,65.513 62.847,66.669 57.839 L 67.211 55.491 70.352 55.491 L 73.493 55.491 73.394 63.931 C 73.303 71.677,73.361 72.370,74.099 72.370 C 74.825 72.370,74.921 71.578,75.095 64.189 C 75.304 55.332,75.365 55.029,76.966 55.029 C 80.144 55.029,86.474 50.532,86.474 48.275 C 86.474 44.568,83.454 40.231,80.873 40.231 C 79.912 40.231,79.967 41.401,80.967 42.233 C 81.764 42.896,81.840 43.072,81.234 42.851 C 80.768 42.682,79.853 42.543,79.200 42.543 L 78.014 42.543 78.341 32.688 C 78.522 27.268,78.843 21.597,79.057 20.087 C 79.459 17.237,78.770 15.380,77.706 16.445 C 77.239 16.911,76.317 31.743,76.299 39.075 L 76.289 43.237 73.759 44.825 C 70.775 46.699,68.689 48.753,67.605 50.887 C 67.109 51.862,66.454 52.452,65.822 52.493 C 64.830 52.556,64.822 52.484,64.639 41.654 C 64.482 32.321,64.296 30.028,63.350 25.723 L 62.245 20.695 59.239 17.515 C 55.917 14.000,53.978 13.452,50.342 14.996 C 48.847 15.631,48.731 15.605,47.399 14.326 C 44.453 11.499,35.520 10.964,30.405 13.309 C 27.135 14.807,26.816 14.708,27.245 12.321 C 27.337 11.806,26.361 10.636,25.839 10.636 C 25.616 10.636,25.414 10.792,25.390 10.983 M42.451 14.225 C 43.875 14.465,45.305 15.041,45.865 15.602 L 46.829 16.566 45.033 17.497 C 42.517 18.801,36.351 25.270,35.485 27.514 C 35.092 28.532,33.918 30.818,32.877 32.594 C 31.835 34.370,30.983 36.179,30.983 36.613 C 30.983 37.047,30.775 37.531,30.520 37.688 C 30.266 37.845,30.052 38.742,30.046 39.680 C 30.039 40.619,29.651 42.833,29.184 44.601 L 28.335 47.815 27.809 44.794 C 27.503 43.037,27.283 36.518,27.283 29.205 L 27.283 16.636 29.942 15.424 C 34.418 13.385,36.360 13.199,42.451 14.225 M56.443 17.242 C 60.673 20.902,62.309 25.843,62.752 36.301 L 63.006 42.312 58.631 42.312 C 56.225 42.312,53.961 42.090,53.602 41.818 C 51.715 40.391,43.618 38.368,39.769 38.361 C 35.122 38.352,35.454 37.998,41.630 36.376 C 46.751 35.031,54.559 32.237,56.198 31.163 C 59.121 29.248,54.550 17.139,50.891 17.103 C 50.259 17.097,50.256 17.042,50.867 16.647 C 52.142 15.824,55.178 16.147,56.443 17.242 M52.302 20.656 C 54.422 22.911,55.971 28.389,54.816 29.544 C 53.587 30.773,39.130 35.589,34.262 36.390 L 32.687 36.650 34.409 33.571 C 35.356 31.877,36.726 29.301,37.454 27.847 C 38.951 24.856,43.152 20.510,46.211 18.788 C 48.626 17.428,49.528 17.705,52.302 20.656 M161.033 37.933 C 160.203 38.688,159.231 39.306,158.874 39.306 C 158.018 39.306,153.915 43.937,152.063 46.993 C 151.257 48.324,150.203 49.515,149.721 49.641 C 149.239 49.767,148.905 50.147,148.979 50.484 C 149.052 50.822,148.602 52.139,147.977 53.410 C 147.035 55.327,146.811 56.580,146.663 60.733 L 146.485 65.744 148.040 67.363 C 151.440 70.903,155.203 73.526,156.882 73.526 C 157.788 73.526,159.001 73.929,159.664 74.451 C 162.065 76.340,163.623 75.488,162.534 72.881 C 161.776 71.067,161.202 70.800,160.553 71.960 C 160.219 72.558,159.944 72.604,159.173 72.191 C 158.644 71.908,157.772 71.676,157.236 71.676 C 156.047 71.676,152.620 69.323,150.166 66.821 L 148.352 64.971 148.519 60.343 C 148.649 56.736,148.893 55.360,149.628 54.101 L 150.571 52.486 159.871 52.360 L 169.171 52.235 170.597 50.903 C 172.271 49.340,172.360 48.329,171.262 43.409 C 169.820 36.954,164.966 34.355,161.033 37.933 M180.981 38.266 C 180.837 38.711,180.388 39.908,179.984 40.925 C 177.990 45.947,178.866 63.364,181.210 65.305 L 182.453 66.334 179.543 70.595 C 177.583 73.465,174.910 76.469,171.349 79.800 C 168.442 82.520,165.942 85.065,165.792 85.455 C 163.957 90.238,176.395 78.324,182.345 69.600 C 184.425 66.550,187.818 62.284,189.885 60.120 C 197.250 52.407,199.950 48.368,198.388 47.403 C 197.819 47.051,193.501 51.634,189.236 57.115 C 184.852 62.751,182.973 64.520,182.271 63.673 C 180.139 61.105,180.314 43.312,182.505 39.853 C 183.034 39.017,183.063 38.637,182.633 38.119 C 181.896 37.231,181.299 37.284,180.981 38.266 M164.512 38.917 C 164.903 39.308,165.213 39.315,165.661 38.943 C 166.851 37.956,168.646 40.216,169.495 43.770 C 171.043 50.250,170.724 50.471,160.059 50.300 L 152.129 50.173 153.697 47.847 C 157.412 42.332,163.172 37.576,164.512 38.917 M46.681 41.335 C 50.549 42.747,49.979 42.919,39.708 43.445 C 30.547 43.914,31.292 44.058,31.698 41.897 L 32.010 40.231 37.855 40.239 C 42.827 40.245,44.145 40.409,46.681 41.335 M116.630 40.780 C 116.276 41.135,116.069 42.839,116.069 45.410 C 116.069 48.749,115.943 49.480,115.364 49.480 C 114.976 49.480,114.480 49.948,114.261 50.520 C 114.042 51.092,113.393 51.977,112.819 52.486 C 112.244 52.994,111.295 54.484,110.709 55.796 C 110.124 57.108,109.425 58.316,109.158 58.482 C 108.890 58.647,108.671 59.138,108.671 59.572 C 108.671 60.006,108.254 61.137,107.746 62.086 C 105.474 66.324,106.563 70.418,111.127 74.798 L 114.140 77.688 117.807 77.688 C 120.902 77.688,121.607 77.542,122.322 76.752 C 123.417 75.542,122.670 74.566,121.236 75.333 C 117.553 77.304,113.977 75.882,109.909 70.832 C 107.893 68.328,108.535 62.499,111.191 59.191 C 111.497 58.809,111.997 57.623,112.302 56.555 C 112.651 55.330,113.363 54.251,114.231 53.633 C 114.988 53.095,115.654 52.304,115.711 51.876 C 115.768 51.448,115.924 56.509,116.058 63.121 C 116.295 74.870,116.323 75.148,117.266 75.282 C 118.764 75.497,119.626 74.184,118.677 73.134 C 116.797 71.058,119.498 61.725,123.628 56.022 C 124.484 54.840,125.571 52.832,126.043 51.561 C 127.085 48.753,131.007 44.393,132.490 44.393 C 136.676 44.393,139.609 52.293,139.874 64.277 C 140.001 70.005,140.188 71.908,140.624 71.908 C 142.244 71.908,142.201 57.586,140.566 52.962 C 138.245 46.396,137.665 45.296,135.793 43.920 C 131.782 40.970,128.144 43.217,124.110 51.138 C 122.955 53.405,121.077 56.925,119.937 58.960 L 117.865 62.659 118.123 56.236 C 118.411 49.046,118.723 48.355,121.494 48.746 C 123.175 48.983,123.826 48.387,122.989 47.379 C 122.305 46.555,119.502 46.488,118.987 47.283 C 118.771 47.617,118.515 46.312,118.382 44.198 C 118.152 40.565,117.709 39.701,116.630 40.780 M84.151 45.972 C 84.762 48.156,84.467 49.942,83.494 49.942 C 83.160 49.942,82.616 50.270,82.284 50.670 C 80.691 52.590,75.809 54.042,76.570 52.370 C 76.772 51.925,77.055 50.000,77.197 48.092 C 77.487 44.221,78.015 43.772,81.039 44.826 C 82.826 45.449,83.691 44.824,82.732 43.603 C 82.149 42.862,82.160 42.836,82.833 43.361 C 83.246 43.684,83.839 44.859,84.151 45.972 M62.886 48.208 L 62.881 52.948 61.667 50.867 C 60.999 49.723,59.517 47.815,58.373 46.627 L 56.294 44.468 58.320 44.206 C 60.939 43.866,62.629 43.610,62.775 43.531 C 62.838 43.497,62.888 45.601,62.886 48.208 M56.097 46.665 C 60.332 50.675,62.098 54.680,61.998 60.044 C 61.891 65.778,60.277 67.577,53.636 69.366 C 52.498 69.672,50.793 70.318,49.848 70.800 C 48.516 71.479,47.110 71.680,43.602 71.693 C 41.112 71.701,37.723 72.020,36.069 72.400 C 34.416 72.780,32.283 73.216,31.329 73.369 L 29.595 73.648 29.595 70.987 C 29.595 68.642,29.680 68.396,30.309 68.918 C 31.457 69.871,31.836 68.878,31.376 66.127 C 29.937 57.534,29.649 47.392,30.810 46.230 C 31.108 45.933,34.813 45.550,39.766 45.306 C 44.412 45.076,48.325 44.777,48.461 44.641 C 49.700 43.402,53.798 44.488,56.097 46.665 M75.376 48.578 C 75.376 52.561,74.490 53.642,71.226 53.642 L 68.487 53.642 68.972 52.252 C 69.409 50.998,74.184 46.265,75.029 46.249 C 75.220 46.246,75.376 47.294,75.376 48.578 M94.666 48.464 C 94.975 48.660,95.429 50.582,95.674 52.734 C 95.920 54.886,96.254 56.991,96.416 57.410 C 96.902 58.667,95.893 58.850,90.376 58.505 L 85.112 58.176 85.793 56.546 C 86.167 55.650,86.474 54.333,86.474 53.621 C 86.474 50.819,92.451 47.056,94.666 48.464 M99.068 50.173 C 99.777 51.138,99.429 53.954,98.497 54.798 C 97.585 55.623,97.572 55.605,97.572 53.540 C 97.572 52.388,97.433 50.743,97.263 49.884 C 96.953 48.319,97.806 48.455,99.068 50.173 M65.312 55.740 C 65.046 57.134,64.277 56.768,64.277 55.247 C 64.277 54.501,64.484 54.212,64.903 54.373 C 65.283 54.519,65.443 55.053,65.312 55.740 " stroke="none" fill="#000000" fill-rule="evenodd"></path></g></svg>